<?xml version="1.0" encoding="UTF-8"?>
<svg width="800" height="400" viewBox="0 0 800 400" xmlns="http://www.w3.org/2000/svg">

    <!-- Discord Messages Section -->
    <g transform="translate(50,85)">
        <!-- Discord Icon Background -->
        <rect x="0" y="0" width="160" height="230" rx="10" fill="#5865F2"/>
        <!-- Message Bubbles -->
        <rect x="20" y="40" width="120" height="35" rx="6" fill="#ffffff" opacity="0.9"/>
        <rect x="20" y="95" width="120" height="35" rx="6" fill="#ffffff" opacity="0.6"/>
        <rect x="20" y="150" width="120" height="35" rx="6" fill="#ffffff" opacity="0.3"/>
    </g>

    <!-- Arrow 1 -->
    <g transform="translate(230,200)">
        <line x1="0" y1="0" x2="70" y2="0" stroke="#4a9eff" stroke-width="3"/>
        <polygon points="70,0 62,-5 62,5" fill="#4a9eff"/>
    </g>

    <!-- LSTM Model Section -->
    <g transform="translate(320,85)">
        <!-- Neural Network Structure -->
        <rect x="0" y="0" width="160" height="230" rx="10" fill="#2d2d2d" stroke="#50c878" stroke-width="2"/>
        
        <!-- LSTM Cells -->
        <g transform="translate(15,30)">
            <!-- Layer 1 -->
            <circle cx="25" cy="30" r="12" fill="#50c878"/>
            <circle cx="65" cy="30" r="12" fill="#50c878"/>
            <circle cx="105" cy="30" r="12" fill="#50c878"/>
            
            <!-- Layer 2 -->
            <circle cx="25" cy="85" r="12" fill="#50c878"/>
            <circle cx="65" cy="85" r="12" fill="#50c878"/>
            <circle cx="105" cy="85" r="12" fill="#50c878"/>
            
            <!-- Layer 3 -->
            <circle cx="25" cy="140" r="12" fill="#50c878"/>
            <circle cx="65" cy="140" r="12" fill="#50c878"/>
            <circle cx="105" cy="140" r="12" fill="#50c878"/>
            
            <!-- Connections -->
            <line x1="25" y1="42" x2="25" y2="73" stroke="#50c878" stroke-width="2"/>
            <line x1="65" y1="42" x2="65" y2="73" stroke="#50c878" stroke-width="2"/>
            <line x1="105" y1="42" x2="105" y2="73" stroke="#50c878" stroke-width="2"/>
            
            <line x1="25" y1="97" x2="25" y2="128" stroke="#50c878" stroke-width="2"/>
            <line x1="65" y1="97" x2="65" y2="128" stroke="#50c878" stroke-width="2"/>
            <line x1="105" y1="97" x2="105" y2="128" stroke="#50c878" stroke-width="2"/>

            <!-- Cross Connections -->
            <line x1="25" y1="42" x2="65" y2="73" stroke="#50c878" stroke-width="1" opacity="0.5"/>
            <line x1="65" y1="42" x2="105" y2="73" stroke="#50c878" stroke-width="1" opacity="0.5"/>
            <line x1="25" y1="97" x2="65" y2="128" stroke="#50c878" stroke-width="1" opacity="0.5"/>
            <line x1="65" y1="97" x2="105" y2="128" stroke="#50c878" stroke-width="1" opacity="0.5"/>
        </g>
    </g>

    <!-- Arrow 2 -->
    <g transform="translate(500,200)">
        <line x1="0" y1="0" x2="70" y2="0" stroke="#4a9eff" stroke-width="3"/>
        <polygon points="70,0 62,-5 62,5" fill="#4a9eff"/>
    </g>

    <!-- Classification Result -->
    <g transform="translate(590,85)">
        <!-- Result Box -->
        <rect x="0" y="0" width="160" height="230" rx="10" fill="#2d2d2d" stroke="#ff4a4a" stroke-width="2"/>
        
        <!-- Classification Labels -->
        <g transform="translate(20,55)">
            <!-- Legitimate Message Icon -->
            <rect x="0" y="0" width="120" height="45" rx="6" fill="#50c878" opacity="0.8"/>
            <!-- Centered, smaller checkmark -->
            <path d="M45,22.5 l10,10 l20,-20" stroke="white" stroke-width="4" fill="none"/>
            
            <!-- Spam Message Icon -->
            <rect x="0" y="85" width="120" height="45" rx="6" fill="#ff4a4a" opacity="0.8"/>
            <!-- Centered X -->
            <g transform="translate(60,107.5)">
                <line x1="-15" y1="-15" x2="15" y2="15" stroke="white" stroke-width="4"/>
                <line x1="-15" y1="15" x2="15" y2="-15" stroke="white" stroke-width="4"/>
            </g>
        </g>
    </g>
</svg>
